# xmcd CD database file
#
# Track frame offsets:
#	150
#	13957
#	27617
#	40027
#	53895
#	63985
#	77160
#	88047
#	101170
#	113287
#	126212
#	138107
#	151355
#	165742
#
# Disc length: 2377 seconds
#
# Revision: 3
# Processed by: cddbd v1.5.1PL2 Copyright (c) Steve Scherf et al.
# Submitted via: CDex 1.51
#
DISCID=b209470e
DTITLE=Albert King and Otis Rush - Door To Door
DYEAR=1900
DGENRE=Blues
TTITLE0=Searchin' For A Woman - Albert King
TTITLE1=Bad Luck - Albert King
TTITLE2=So Close - Otis Rush
TTITLE3=Howlin' For My Darling - Albert King
TTITLE4=I Can't Stop - Otis Rush
TTITLE5=Won't Be Hangin' Around - Albert King
TTITLE6=I'm Satisfied - Otis Rush
TTITLE7=All Your Love - Otis Rush
TTITLE8=You Know My Love - Otis Rush
TTITLE9=Merry Way - Albert King
TTITLE10=Wild Women - Albert King
TTITLE11=Murder - Albert King
TTITLE12=So Many Roads - Otis Rush
TTITLE13=California - Albert King
EXTD=
EXTT0=
EXTT1=
EXTT2=
EXTT3=
EXTT4=
EXTT5=
EXTT6=
EXTT7=
EXTT8=
EXTT9=
EXTT10=
EXTT11=
EXTT12=
EXTT13=
PLAYORDER=
